<?xml version="1.0" standalone="no" ?>
<!DOCTYPE svg PUBLIC "-//W3C//DTD SVG 1.1//EN" "http://www.w3.org/Graphics/SVG/1.1/DTD/svg11.dtd">
<svg width="638px" height="290px" viewBox="0 0 638 290" style="background-color: #ffffff00" xmlns="http://www.w3.org/2000/svg" xmlns:xlink="http://www.w3.org/1999/xlink" version="1.1" >
<text x="0" y="0" stroke="none" fill="#c90000" transform="matrix(0.05 0 0 0.05 573.33 40.8637)" font-style="normal" font-weight="normal" font-size="240px" font-family="Helvetica" >
Ru</text>
<path stroke="none" fill="#c90000" transform="matrix(0.05 0 0 0.05 -46 -146)" d="M 12670.9,3798.66 L 12691.7,3777.06 L 12975.2,4002.08 L 12978.6,4075.4 L 12969.2,4163.5 L 12670.9,3798.66 L 12670.9,3798.66 Z " />
<path stroke="none" fill="#c90000" transform="matrix(0.05 0 0 0.05 -46 -146)" d="M 12993.2,4081.59 L 12978.6,4075.4 L 12988.9,4045.8 L 13370.3,3664.8 L 13402.8,3651.2 L 13425.2,3651.2 L 12993.2,4081.59 Z " />
<path stroke="none" fill="#c90000" transform="matrix(0.05 0 0 0.05 -46 -146)" d="M 13425.2,3651.2 L 13402.8,3651.2 L 13370.3,3637.6 L 12968,3237.62 L 12989.2,3216.38 L 13425.2,3651.2 Z " />
<path stroke="none" fill="#c90000" transform="matrix(0.05 0 0 0.05 -46 -146)" d="M 12898,3221.48 L 12981.4,3307.74 L 12957.5,3326.21 L 12878.7,3244.8 L 12898,3221.48 L 12898,3221.48 Z " />
<path stroke="none" fill="#c90000" transform="matrix(0.05 0 0 0.05 -46 -146)" d="M 12858.4,3269.42 L 12932.2,3345.71 L 12908.2,3364.18 L 12839.2,3292.74 L 12858.4,3269.42 L 12858.4,3269.42 Z " />
<path stroke="none" fill="#c90000" transform="matrix(0.05 0 0 0.05 -46 -146)" d="M 12818.8,3317.36 L 12883,3383.68 L 12859,3402.15 L 12799.6,3340.67 L 12818.8,3317.36 L 12818.8,3317.36 Z " />
<path stroke="none" fill="#c90000" transform="matrix(0.05 0 0 0.05 -46 -146)" d="M 12779.2,3365.3 L 12833.7,3421.65 L 12809.8,3440.12 L 12760,3388.61 L 12779.2,3365.3 L 12779.2,3365.3 Z " />
<path stroke="none" fill="#c90000" transform="matrix(0.05 0 0 0.05 -46 -146)" d="M 12739.6,3413.24 L 12784.5,3459.62 L 12760.5,3478.09 L 12720.4,3436.55 L 12739.6,3413.24 L 12739.6,3413.24 Z " />
<path stroke="none" fill="#c90000" transform="matrix(0.05 0 0 0.05 -46 -146)" d="M 12700,3461.18 L 12735.3,3497.59 L 12711.3,3516.06 L 12680.8,3484.49 L 12700,3461.18 L 12700,3461.18 Z " />
<path stroke="none" fill="#c90000" transform="matrix(0.05 0 0 0.05 -46 -146)" d="M 12660.4,3509.11 L 12686,3535.56 L 12662.1,3554.02 L 12641.2,3532.43 L 12660.4,3509.11 L 12660.4,3509.11 Z " />
<text x="0" y="0" stroke="none" fill="#c90000" transform="matrix(0.05 0 0 0.05 576.998 10.8637)" font-style="normal" font-weight="normal" font-size="240px" font-family="Helvetica" >
PR</text>
<text x="0" y="0" stroke="none" fill="#c90000" transform="matrix(0.05 0 0 0.05 593.668 13.6235)" font-style="normal" font-weight="normal" font-size="180px" font-family="Helvetica" >
3</text>
<path stroke="none" fill="#c90000" transform="matrix(0.05 0 0 0.05 -46 -146)" d="M 12555,3524.13 L 12525,3524.13 L 12525,3176.13 L 12555,3176.13 L 12555,3524.13 Z " />
<text x="0" y="0" stroke="none" fill="#c90000" transform="matrix(0.05 0 0 0.05 576.998 70.8637)" font-style="normal" font-weight="normal" font-size="240px" font-family="Helvetica" >
PR</text>
<text x="0" y="0" stroke="none" fill="#c90000" transform="matrix(0.05 0 0 0.05 593.668 73.6235)" font-style="normal" font-weight="normal" font-size="180px" font-family="Helvetica" >
3</text>
<path stroke="none" fill="#c90000" transform="matrix(0.05 0 0 0.05 -46 -146)" d="M 12525,3780.13 L 12555,3780.13 L 12555,4124.13 L 12525,4124.13 L 12525,3780.13 Z " />
<path stroke="none" fill="#c90000" transform="matrix(0.05 0 0 0.05 -46 -146)" d="M 12715.7,3666.22 L 12715.7,3636.18 L 12792,3636.18 L 12792,3666.22 L 12715.7,3666.22 L 12715.7,3666.22 Z " />
<path stroke="none" fill="#c90000" transform="matrix(0.05 0 0 0.05 -46 -146)" d="M 12868.4,3666.22 L 12868.4,3636.18 L 12884.7,3636.18 L 12887.2,3666.22 L 12868.4,3666.22 L 12868.4,3666.22 Z " />
<path stroke="none" fill="#c90000" transform="matrix(0.05 0 0 0.05 -46 -146)" d="M 13097.4,3636.18 L 13097.4,3666.22 L 13070,3666.22 L 13072.5,3636.18 L 13097.4,3636.18 L 13097.4,3636.18 Z " />
<path stroke="none" fill="#c90000" transform="matrix(0.05 0 0 0.05 -46 -146)" d="M 13173.8,3666.22 L 13173.8,3636.18 L 13250.1,3636.18 L 13250.1,3666.22 L 13173.8,3666.22 L 13173.8,3666.22 Z " />
<path stroke="none" fill="#c90000" transform="matrix(0.05 0 0 0.05 -46 -146)" d="M 13326.5,3666.22 L 13326.5,3636.18 L 13402.8,3636.18 L 13402.8,3666.22 L 13326.5,3666.22 L 13326.5,3666.22 Z " />
<text x="0" y="0" stroke="none" fill="#c90000" transform="matrix(0.05 0 0 0.05 545.021 55.8637)" font-style="normal" font-weight="normal" font-size="240px" font-family="Helvetica" >
Cl</text>
<path stroke="none" fill="#c90000" transform="matrix(0.05 0 0 0.05 -46 -146)" d="M 12361.1,3737.15 L 12376.1,3763.17 L 12129.1,3957.73 L 12069.1,3853.81 L 12361.1,3737.15 Z " />
<text x="0" y="0" stroke="none" fill="#c90000" transform="matrix(0.05 0 0 0.05 545.021 25.8637)" font-style="normal" font-weight="normal" font-size="240px" font-family="Helvetica" >
Cl</text>
<path stroke="none" fill="#c90000" transform="matrix(0.05 0 0 0.05 -46 -146)" d="M 12375.2,3538.7 L 12360.2,3564.72 L 12331.9,3553.5 L 12351.4,3519.87 L 12375.2,3538.7 Z " />
<path stroke="none" fill="#c90000" transform="matrix(0.05 0 0 0.05 -46 -146)" d="M 12331.2,3503.91 L 12308,3543.99 L 12279.8,3532.78 L 12307.4,3485.09 L 12331.2,3503.91 Z " />
<path stroke="none" fill="#c90000" transform="matrix(0.05 0 0 0.05 -46 -146)" d="M 12287.2,3469.13 L 12255.9,3523.27 L 12227.7,3512.05 L 12263.3,3450.3 L 12287.2,3469.13 Z " />
<path stroke="none" fill="#c90000" transform="matrix(0.05 0 0 0.05 -46 -146)" d="M 12243.2,3434.35 L 12203.8,3502.55 L 12175.6,3491.33 L 12219.3,3415.52 L 12243.2,3434.35 Z " />
<path stroke="none" fill="#c90000" transform="matrix(0.05 0 0 0.05 -46 -146)" d="M 12199.2,3399.57 L 12151.7,3481.83 L 12123.4,3470.61 L 12175.3,3380.74 L 12199.2,3399.57 Z " />
<path stroke="none" fill="#c90000" transform="matrix(0.05 0 0 0.05 -46 -146)" d="M 12155.1,3364.79 L 12099.5,3461.1 L 12071.3,3449.88 L 12131.3,3345.96 L 12155.1,3364.79 Z " />
<a target="_blank" xlink:href="https://doi.org/10.14469/hpc/13833"><text x="0" y="0" stroke="none" fill="#c90000" transform="matrix(0.05 0 0 0.05 545.05 104)" font-style="normal" font-weight="normal" font-size="200px" font-family="Helvetica Neue" >
-1818.944080</text>
<text x="0" y="0" stroke="none" fill="#c90000" transform="matrix(0.05 0 0 0.05 545.05 115.93)" font-style="normal" font-weight="normal" font-size="200px" font-family="Helvetica Neue" >
13833</text></a>
<text x="0" y="0" stroke="none" fill="#c90000" transform="matrix(0.05 0 0 0.05 384.33 72.7437)" font-style="normal" font-weight="normal" font-size="240px" font-family="Helvetica" >
Ru</text>
<path stroke="none" fill="#c90000" transform="matrix(0.05 0 0 0.05 -46 -146)" d="M 8888.47,4438.52 L 8909.72,4417.27 L 9343.84,4751.01 L 9184.2,4713 L 9135.36,4746.08 L 8888.47,4438.52 Z " />
<text x="0" y="0" stroke="none" fill="#c90000" transform="matrix(0.05 0 0 0.05 366.567 43.7637)" font-style="normal" font-weight="normal" font-size="240px" font-family="Helvetica" >
R</text>
<text x="0" y="0" stroke="none" fill="#c90000" transform="matrix(0.05 0 0 0.05 375.233 46.5235)" font-style="normal" font-weight="normal" font-size="180px" font-family="Helvetica" >
3</text>
<text x="0" y="0" stroke="none" fill="#c90000" transform="matrix(0.05 0 0 0.05 380.238 43.7637)" font-style="normal" font-weight="normal" font-size="240px" font-family="Helvetica" >
P</text>
<path stroke="none" fill="#c90000" transform="matrix(0.05 0 0 0.05 -46 -146)" d="M 8737.35,4146.14 L 8708.33,4153.92 L 8617.17,3813.48 L 8646.2,3805.71 L 8737.35,4146.14 Z " />
<text x="0" y="0" stroke="none" fill="#c90000" transform="matrix(0.05 0 0 0.05 366.567 101.724)" font-style="normal" font-weight="normal" font-size="240px" font-family="Helvetica" >
R</text>
<text x="0" y="0" stroke="none" fill="#c90000" transform="matrix(0.05 0 0 0.05 375.233 104.483)" font-style="normal" font-weight="normal" font-size="180px" font-family="Helvetica" >
3</text>
<text x="0" y="0" stroke="none" fill="#c90000" transform="matrix(0.05 0 0 0.05 380.238 101.724)" font-style="normal" font-weight="normal" font-size="240px" font-family="Helvetica" >
P</text>
<path stroke="none" fill="#c90000" transform="matrix(0.05 0 0 0.05 -46 -146)" d="M 8712.38,4408.55 L 8741.41,4416.32 L 8653.37,4745.11 L 8624.34,4737.34 L 8712.38,4408.55 Z " />
<text x="0" y="0" stroke="none" fill="#c90000" transform="matrix(0.05 0 0 0.05 356.021 87.7437)" font-style="normal" font-weight="normal" font-size="240px" font-family="Helvetica" >
Cl</text>
<path stroke="none" fill="#c90000" transform="matrix(0.05 0 0 0.05 -46 -146)" d="M 8580.66,4375 L 8595.69,4401.02 L 8349.52,4595.08 L 8289.52,4491.16 L 8580.66,4375 Z " />
<text x="0" y="0" stroke="none" fill="#c90000" transform="matrix(0.05 0 0 0.05 356.021 57.7437)" font-style="normal" font-weight="normal" font-size="240px" font-family="Helvetica" >
Cl</text>
<path stroke="none" fill="#c90000" transform="matrix(0.05 0 0 0.05 -46 -146)" d="M 8595.62,4176.55 L 8580.6,4202.57 L 8552.39,4191.34 L 8571.79,4157.73 L 8595.62,4176.55 Z " />
<path stroke="none" fill="#c90000" transform="matrix(0.05 0 0 0.05 -46 -146)" d="M 8551.44,4141.66 L 8528.3,4181.75 L 8500.09,4170.52 L 8527.61,4122.85 L 8551.44,4141.66 Z " />
<path stroke="none" fill="#c90000" transform="matrix(0.05 0 0 0.05 -46 -146)" d="M 8507.26,4106.78 L 8476,4160.93 L 8447.79,4149.69 L 8483.43,4087.96 L 8507.26,4106.78 Z " />
<path stroke="none" fill="#c90000" transform="matrix(0.05 0 0 0.05 -46 -146)" d="M 8463.08,4071.89 L 8423.7,4140.11 L 8395.49,4128.87 L 8439.25,4053.08 L 8463.08,4071.89 Z " />
<path stroke="none" fill="#c90000" transform="matrix(0.05 0 0 0.05 -46 -146)" d="M 8418.9,4037.01 L 8371.4,4119.28 L 8343.19,4108.05 L 8395.07,4018.19 L 8418.9,4037.01 Z " />
<path stroke="none" fill="#c90000" transform="matrix(0.05 0 0 0.05 -46 -146)" d="M 8374.72,4002.13 L 8319.1,4098.46 L 8290.89,4087.23 L 8350.89,3983.31 L 8374.72,4002.13 Z " />
<text x="0" y="0" stroke="none" fill="#c90000" transform="matrix(0.05 0 0 0.05 387.667 115.174)" font-style="normal" font-weight="normal" font-size="240px" font-family="Helvetica" >
H</text>
<path stroke="none" fill="#c90000" transform="matrix(0.05 0 0 0.05 -46 -146)" d="M 9135.36,4746.08 L 9184.2,4713 L 9188.5,4729.16 L 8876.53,5042.07 L 8855.28,5020.83 L 9135.36,4746.08 Z " />
<text x="0" y="0" stroke="none" fill="#c90000" transform="matrix(0.05 0 0 0.05 437.857 101.724)" font-style="normal" font-weight="normal" font-size="240px" font-family="Helvetica" >
H</text>
<path stroke="none" fill="#c90000" transform="matrix(0.05 0 0 0.05 -46 -146)" d="M 9188.5,4729.16 L 9184.2,4713 L 9343.84,4751.01 L 9646.1,4821.29 L 9638.32,4850.31 L 9188.5,4729.16 Z " />
<text x="0" y="0" stroke="none" fill="#c90000" transform="matrix(0.05 0 0 0.05 598.597 92.0737)" font-style="normal" font-weight="normal" font-size="240px" font-family="Helvetica" >
H</text>
<path stroke="none" fill="#c90000" transform="matrix(0.05 0 0 0.05 -46 -146)" d="M 12969.2,4163.5 L 12978.6,4075.4 L 12993.2,4081.59 L 12993.6,4548.33 L 12963.6,4548.33 L 12969.2,4163.5 Z " />
<text x="0" y="0" stroke="none" fill="#c90000" transform="matrix(0.05 0 0 0.05 598.597 32.0737)" font-style="normal" font-weight="normal" font-size="240px" font-family="Helvetica" >
H</text>
<path stroke="none" fill="#c90000" transform="matrix(0.05 0 0 0.05 -46 -146)" d="M 12988.9,4045.8 L 12978.6,4075.4 L 12975.2,4002.08 L 12918.6,3600.33 L 13038.6,3600.33 L 12988.9,4045.8 Z " />
<text x="0" y="0" stroke="none" fill="#c90000" transform="matrix(0.05 0 0 0.05 461 52)" font-style="normal" font-weight="normal" font-size="200px" font-family="Helvetica Neue" >
TS, </text>
<text x="0" y="0" stroke="none" fill="#c90000" transform="matrix(0.05 0 0 0.05 478.78 52)" font-style="normal" font-weight="normal" font-size="200px" font-family="Helvetica Neue" >
IRC</text>
<a target="_blank" xlink:href="https://doi.org/10.14469/hpc/13834"><text x="0" y="0" stroke="none" fill="#c90000" transform="matrix(0.05 0 0 0.05 461 63.9299)" font-style="normal" font-weight="normal" font-size="200px" font-family="Helvetica Neue" >
-1818.93450</text>
<text x="0" y="0" stroke="none" fill="#c90000" transform="matrix(0.05 0 0 0.05 461 75.8599)" font-style="normal" font-weight="normal" font-size="200px" font-family="Helvetica Neue" >
13829,13834</text></a>
<path stroke="none" fill="#c90000" transform="matrix(0.05 0 0 0.05 -46 -146)" d="M 9157.54,3855.78 L 9153.64,3814.48 L 9672.52,4218.52 L 9593.58,4195.49 L 9157.54,3855.78 Z " />
<path stroke="none" fill="#c90000" transform="matrix(0.05 0 0 0.05 -46 -146)" d="M 9156.28,3951.01 L 9174.79,3927.34 L 9443.02,4137.11 L 9424.51,4160.78 L 9156.28,3951.01 Z " />
<path stroke="none" fill="#c90000" transform="matrix(0.05 0 0 0.05 -46 -146)" d="M 8841.63,4218.27 L 8819.02,4198.49 L 8865.51,4145.32 L 8888.13,4165.1 L 8841.63,4218.27 Z " />
<path stroke="none" fill="#c90000" transform="matrix(0.05 0 0 0.05 -46 -146)" d="M 8934.63,4111.93 L 8912.01,4092.15 L 8958.51,4038.99 L 8981.12,4058.77 L 8934.63,4111.93 Z " />
<path stroke="none" fill="#c90000" transform="matrix(0.05 0 0 0.05 -46 -146)" d="M 9027.62,4005.6 L 9005,3985.82 L 9051.5,3932.65 L 9074.12,3952.43 L 9027.62,4005.6 Z " />
<path stroke="none" fill="#c90000" transform="matrix(0.05 0 0 0.05 -46 -146)" d="M 9120.61,3899.26 L 9097.99,3879.48 L 9144.49,3826.31 L 9167.11,3846.09 L 9120.61,3899.26 Z " />
<path stroke="none" fill="#c90000" transform="matrix(0.05 0 0 0.05 -46 -146)" d="M 8935.71,4287.1 L 8932.86,4257.19 L 9009.98,4249.82 L 9012.84,4279.73 L 8935.71,4287.1 Z " />
<path stroke="none" fill="#c90000" transform="matrix(0.05 0 0 0.05 -46 -146)" d="M 9089.96,4272.35 L 9087.1,4242.44 L 9164.23,4235.07 L 9167.09,4264.98 L 9089.96,4272.35 Z " />
<path stroke="none" fill="#c90000" transform="matrix(0.05 0 0 0.05 -46 -146)" d="M 9244.21,4257.61 L 9241.35,4227.7 L 9318.48,4220.33 L 9321.33,4250.24 L 9244.21,4257.61 Z " />
<path stroke="none" fill="#c90000" transform="matrix(0.05 0 0 0.05 -46 -146)" d="M 9398.46,4242.87 L 9395.6,4212.96 L 9472.72,4205.59 L 9475.58,4235.5 L 9398.46,4242.87 Z " />
<path stroke="none" fill="#c90000" transform="matrix(0.05 0 0 0.05 -46 -146)" d="M 9552.71,4228.13 L 9549.85,4198.22 L 9626.97,4190.84 L 9629.83,4220.76 L 9552.71,4228.13 Z " />
<path stroke="#c90000" stroke-width="80" fill="none" transform="matrix(0.05 0 0 0.05 -46 -146)" d="M 9093.96,4203.77 C 9033.28,4143.07 8964.33,4217.01 8940.06,4368.82 C 8915.8,4520.63 8945.36,4693.12 9006.04,4753.83 C 9006.04,4753.83 9006.05,4753.84 9006.05,4753.84 " />
<path stroke="none" fill="#c90000" transform="matrix(0.05 0 0 0.05 -46 -146)" d="M 9159.94,4588.74 C 9159.94,4588.74 8973.55,4168.63 8973.55,4168.63 C 8973.55,4168.63 9048.88,4211.84 9093.96,4203.77 C 9139.05,4195.71 9195.53,4128.93 9195.53,4128.93 C 9195.53,4128.93 9159.94,4588.74 9159.94,4588.74 C 9159.94,4588.74 9159.94,4588.74 9159.94,4588.74 " />
<path stroke="#c90000" stroke-width="1" fill="none" transform="matrix(0.05 0 0 0.05 -46 -146)" d="M 9159.94,4588.74 C 9159.94,4588.74 8973.55,4168.63 8973.55,4168.63 C 8973.55,4168.63 9048.88,4211.84 9093.96,4203.77 C 9139.05,4195.71 9195.53,4128.93 9195.53,4128.93 C 9195.53,4128.93 9159.94,4588.74 9159.94,4588.74 C 9159.94,4588.74 9159.94,4588.74 9159.94,4588.74 " />
<a target="_blank" xlink:href="https://doi.org/10.14469/hpc/13835"><text x="0" y="0" stroke="none" fill="#c90000" transform="matrix(0.05 0 0 0.05 369.61 123.92)" font-style="normal" font-weight="normal" font-size="200px" font-family="Helvetica" >
-1818.939558</text>
<text x="0" y="0" stroke="none" fill="#c90000" transform="matrix(0.05 0 0 0.05 369.61 133.97)" font-style="normal" font-weight="normal" font-size="200px" font-family="Helvetica" >
13835</text></a>
<a target="_blank" xlink:href="https://doi.org/10.14469/hpc/13828"><text x="0" y="0" stroke="none" fill="#000000" transform="matrix(0.05 0 0 0.05 12 132)" font-style="normal" font-weight="normal" font-size="200px" font-family="Helvetica Neue" >
-1,818.943683</text>
<text x="0" y="0" stroke="none" fill="#000000" transform="matrix(0.05 0 0 0.05 12 143.93)" font-style="normal" font-weight="normal" font-size="200px" font-family="Helvetica Neue" >
13828</text></a>
<text x="0" y="0" stroke="none" fill="#007100" transform="matrix(0.05 0 0 0.05 30.3301 72.3037)" font-style="normal" font-weight="normal" font-size="240px" font-family="Helvetica" >
Ru</text>
<text x="0" y="0" stroke="none" fill="#007100" transform="matrix(0.05 0 0 0.05 33.998 42.3037)" font-style="normal" font-weight="normal" font-size="240px" font-family="Helvetica" >
PR</text>
<text x="0" y="0" stroke="none" fill="#007100" transform="matrix(0.05 0 0 0.05 50.668 45.0635)" font-style="normal" font-weight="normal" font-size="180px" font-family="Helvetica" >
3</text>
<path stroke="none" fill="#007100" transform="matrix(0.05 0 0 0.05 -46 -146)" d="M 1695.02,4153.93 L 1664.98,4153.93 L 1664.98,3805.93 L 1695.02,3805.93 L 1695.02,4153.93 Z " />
<text x="0" y="0" stroke="none" fill="#007100" transform="matrix(0.05 0 0 0.05 33.998 102.304)" font-style="normal" font-weight="normal" font-size="240px" font-family="Helvetica" >
PR</text>
<text x="0" y="0" stroke="none" fill="#007100" transform="matrix(0.05 0 0 0.05 50.668 105.063)" font-style="normal" font-weight="normal" font-size="180px" font-family="Helvetica" >
3</text>
<path stroke="none" fill="#007100" transform="matrix(0.05 0 0 0.05 -46 -146)" d="M 1664.98,4409.93 L 1695.02,4409.93 L 1695.02,4753.93 L 1664.98,4753.93 L 1664.98,4409.93 Z " />
<text x="0" y="0" stroke="none" fill="#007100" transform="matrix(0.05 0 0 0.05 2.02097 87.3037)" font-style="normal" font-weight="normal" font-size="240px" font-family="Helvetica" >
Cl</text>
<path stroke="none" fill="#007100" transform="matrix(0.05 0 0 0.05 -46 -146)" d="M 1500.66,4366.2 L 1515.69,4392.22 L 1269.52,4586.28 L 1209.52,4482.36 L 1500.66,4366.2 Z " />
<text x="0" y="0" stroke="none" fill="#007100" transform="matrix(0.05 0 0 0.05 2.02097 57.3037)" font-style="normal" font-weight="normal" font-size="240px" font-family="Helvetica" >
Cl</text>
<path stroke="none" fill="#007100" transform="matrix(0.05 0 0 0.05 -46 -146)" d="M 1515.62,4167.75 L 1500.6,4193.77 L 1472.39,4182.54 L 1491.79,4148.93 L 1515.62,4167.75 Z " />
<path stroke="none" fill="#007100" transform="matrix(0.05 0 0 0.05 -46 -146)" d="M 1471.44,4132.86 L 1448.3,4172.95 L 1420.09,4161.72 L 1447.61,4114.05 L 1471.44,4132.86 Z " />
<path stroke="none" fill="#007100" transform="matrix(0.05 0 0 0.05 -46 -146)" d="M 1427.26,4097.98 L 1396,4152.13 L 1367.79,4140.9 L 1403.43,4079.16 L 1427.26,4097.98 Z " />
<path stroke="none" fill="#007100" transform="matrix(0.05 0 0 0.05 -46 -146)" d="M 1383.08,4063.1 L 1343.7,4131.31 L 1315.49,4120.07 L 1359.25,4044.28 L 1383.08,4063.1 Z " />
<path stroke="none" fill="#007100" transform="matrix(0.05 0 0 0.05 -46 -146)" d="M 1338.9,4028.21 L 1291.4,4110.49 L 1263.19,4099.25 L 1315.07,4009.39 L 1338.9,4028.21 Z " />
<path stroke="none" fill="#007100" transform="matrix(0.05 0 0 0.05 -46 -146)" d="M 1294.72,3993.33 L 1239.1,4089.66 L 1210.89,4078.43 L 1270.89,3974.51 L 1294.72,3993.33 Z " />
<path stroke="none" fill="#007100" transform="matrix(0.05 0 0 0.05 -46 -146)" d="M 1855.7,4295.02 L 1855.7,4264.98 L 2273.91,4265.41 L 2280,4280 L 2273.91,4294.59 L 1855.7,4295.02 Z " />
<path stroke="none" fill="#007100" transform="matrix(0.05 0 0 0.05 -46 -146)" d="M 1855.7,4219.91 L 1855.7,4189.86 L 2248.89,4189.86 L 2248.89,4219.91 L 1855.7,4219.91 Z " />
<text x="0" y="0" stroke="none" fill="#007100" transform="matrix(0.05 0 0 0.05 84.877 51.0937)" font-style="normal" font-weight="normal" font-size="240px" font-family="Helvetica" >
H</text>
<path stroke="none" fill="#007100" transform="matrix(0.05 0 0 0.05 -46 -146)" d="M 2299.92,4280 L 2280,4280 L 2273.91,4265.41 L 2588.43,3950.32 L 2609.68,3971.57 L 2299.92,4280 Z " />
<text x="0" y="0" stroke="none" fill="#007100" transform="matrix(0.05 0 0 0.05 84.877 93.5137)" font-style="normal" font-weight="normal" font-size="240px" font-family="Helvetica" >
H</text>
<path stroke="none" fill="#007100" transform="matrix(0.05 0 0 0.05 -46 -146)" d="M 2273.91,4294.59 L 2280,4280 L 2299.92,4280 L 2608.61,4587.36 L 2587.36,4608.61 L 2273.91,4294.59 Z " />
<text x="0" y="0" stroke="none" fill="#c90000" transform="matrix(0.05 0 0 0.05 190.33 78.0037)" font-style="normal" font-weight="normal" font-size="240px" font-family="Helvetica" >
Ru</text>
<text x="0" y="0" stroke="none" fill="#c90000" transform="matrix(0.05 0 0 0.05 193.998 48.0037)" font-style="normal" font-weight="normal" font-size="240px" font-family="Helvetica" >
PR</text>
<text x="0" y="0" stroke="none" fill="#c90000" transform="matrix(0.05 0 0 0.05 210.668 50.7635)" font-style="normal" font-weight="normal" font-size="180px" font-family="Helvetica" >
3</text>
<path stroke="none" fill="#c90000" transform="matrix(0.05 0 0 0.05 -46 -146)" d="M 4895.02,4267.93 L 4864.98,4267.93 L 4864.98,3919.93 L 4895.02,3919.93 L 4895.02,4267.93 Z " />
<text x="0" y="0" stroke="none" fill="#c90000" transform="matrix(0.05 0 0 0.05 193.998 108.004)" font-style="normal" font-weight="normal" font-size="240px" font-family="Helvetica" >
PR</text>
<text x="0" y="0" stroke="none" fill="#c90000" transform="matrix(0.05 0 0 0.05 210.668 110.763)" font-style="normal" font-weight="normal" font-size="180px" font-family="Helvetica" >
3</text>
<path stroke="none" fill="#c90000" transform="matrix(0.05 0 0 0.05 -46 -146)" d="M 4864.98,4523.93 L 4895.02,4523.93 L 4895.02,4867.93 L 4864.98,4867.93 L 4864.98,4523.93 Z " />
<text x="0" y="0" stroke="none" fill="#c90000" transform="matrix(0.05 0 0 0.05 162.021 93.0037)" font-style="normal" font-weight="normal" font-size="240px" font-family="Helvetica" >
Cl</text>
<path stroke="none" fill="#c90000" transform="matrix(0.05 0 0 0.05 -46 -146)" d="M 4700.66,4480.2 L 4715.69,4506.22 L 4469.52,4700.28 L 4409.52,4596.36 L 4700.66,4480.2 Z " />
<text x="0" y="0" stroke="none" fill="#c90000" transform="matrix(0.05 0 0 0.05 162.021 63.0037)" font-style="normal" font-weight="normal" font-size="240px" font-family="Helvetica" >
Cl</text>
<path stroke="none" fill="#c90000" transform="matrix(0.05 0 0 0.05 -46 -146)" d="M 4715.62,4281.75 L 4700.6,4307.77 L 4672.39,4296.54 L 4691.79,4262.93 L 4715.62,4281.75 Z " />
<path stroke="none" fill="#c90000" transform="matrix(0.05 0 0 0.05 -46 -146)" d="M 4671.44,4246.86 L 4648.3,4286.95 L 4620.09,4275.72 L 4647.61,4228.05 L 4671.44,4246.86 Z " />
<path stroke="none" fill="#c90000" transform="matrix(0.05 0 0 0.05 -46 -146)" d="M 4627.26,4211.98 L 4596,4266.13 L 4567.79,4254.9 L 4603.43,4193.16 L 4627.26,4211.98 Z " />
<path stroke="none" fill="#c90000" transform="matrix(0.05 0 0 0.05 -46 -146)" d="M 4583.08,4177.1 L 4543.7,4245.31 L 4515.49,4234.07 L 4559.25,4158.28 L 4583.08,4177.1 Z " />
<path stroke="none" fill="#c90000" transform="matrix(0.05 0 0 0.05 -46 -146)" d="M 4538.9,4142.21 L 4491.4,4224.49 L 4463.19,4213.25 L 4515.07,4123.39 L 4538.9,4142.21 Z " />
<path stroke="none" fill="#c90000" transform="matrix(0.05 0 0 0.05 -46 -146)" d="M 4494.72,4107.33 L 4439.1,4203.66 L 4410.89,4192.43 L 4470.89,4088.51 L 4494.72,4107.33 Z " />
<path stroke="none" fill="#c90000" transform="matrix(0.05 0 0 0.05 -46 -146)" d="M 5055.7,4409.02 L 5055.7,4378.98 L 5484.65,4378.65 L 5477.32,4408.83 L 5055.7,4409.02 Z " />
<path stroke="none" fill="#c90000" transform="matrix(0.05 0 0 0.05 -46 -146)" d="M 5055.7,4333.91 L 5055.7,4303.86 L 5470.12,4303.86 L 5470.12,4333.91 L 5055.7,4333.91 Z " />
<text x="0" y="0" stroke="none" fill="#c90000" transform="matrix(0.05 0 0 0.05 252.647 70.2437)" font-style="normal" font-weight="normal" font-size="240px" font-family="Helvetica" >
H</text>
<path stroke="none" fill="#c90000" transform="matrix(0.05 0 0 0.05 -46 -146)" d="M 5536.09,4394.53 L 5528.31,4365.51 L 5556.5,4354.61 L 5565.95,4389.89 L 5536.09,4394.53 Z " />
<path stroke="none" fill="#c90000" transform="matrix(0.05 0 0 0.05 -46 -146)" d="M 5591.07,4385.98 L 5580.21,4345.44 L 5608.4,4334.54 L 5620.93,4381.34 L 5591.07,4385.98 Z " />
<path stroke="none" fill="#c90000" transform="matrix(0.05 0 0 0.05 -46 -146)" d="M 5646.05,4377.43 L 5632.11,4325.37 L 5660.3,4314.47 L 5675.91,4372.79 L 5646.05,4377.43 Z " />
<path stroke="none" fill="#c90000" transform="matrix(0.05 0 0 0.05 -46 -146)" d="M 5701.03,4368.88 L 5684.01,4305.3 L 5712.19,4294.4 L 5730.89,4364.24 L 5701.03,4368.88 Z " />
<path stroke="none" fill="#c90000" transform="matrix(0.05 0 0 0.05 -46 -146)" d="M 5756.01,4360.33 L 5735.9,4285.23 L 5764.09,4274.33 L 5785.88,4355.69 L 5756.01,4360.33 Z " />
<path stroke="none" fill="#c90000" transform="matrix(0.05 0 0 0.05 -46 -146)" d="M 5811,4351.78 L 5787.8,4265.16 L 5815.99,4254.26 L 5840.86,4347.14 L 5811,4351.78 Z " />
<path stroke="none" fill="#c90000" transform="matrix(0.05 0 0 0.05 -46 -146)" d="M 5865.98,4343.24 L 5839.7,4245.09 L 5867.88,4234.19 L 5895.84,4338.59 L 5865.98,4343.24 Z " />
<path stroke="none" fill="#c90000" transform="matrix(0.05 0 0 0.05 -46 -146)" d="M 5920.96,4334.69 L 5891.6,4225.03 L 5919.78,4214.13 L 5950.82,4330.04 L 5920.96,4334.69 Z " />
<text x="0" y="0" stroke="none" fill="#c90000" transform="matrix(0.05 0 0 0.05 249.647 93.0037)" font-style="normal" font-weight="normal" font-size="240px" font-family="Helvetica" >
H</text>
<path stroke="none" fill="#c90000" transform="matrix(0.05 0 0 0.05 -46 -146)" d="M 5477.32,4408.83 L 5484.65,4378.65 L 5905.66,4570.48 L 5845.66,4674.4 L 5477.32,4408.83 Z " />
<text x="0" y="0" stroke="none" fill="#c90000" transform="matrix(0.05 0 0 0.05 108 21)" font-style="normal" font-weight="normal" font-size="200px" font-family="Helvetica Neue" >
TS </text>
<text x="0" y="0" stroke="none" fill="#c90000" transform="matrix(0.05 0 0 0.05 123 21)" font-style="normal" font-weight="normal" font-size="200px" font-family="Helvetica Neue" >
carbene </text>
<text x="0" y="0" stroke="none" fill="#c90000" transform="matrix(0.05 0 0 0.05 162.08 21)" font-style="normal" font-weight="normal" font-size="200px" font-family="Helvetica Neue" >
rotation, </text>
<text x="0" y="0" stroke="none" fill="#c90000" transform="matrix(0.05 0 0 0.05 201.72 21)" font-style="normal" font-weight="normal" font-size="200px" font-family="Helvetica Neue" >
IRC</text>
<a target="_blank" xlink:href="https://doi.org/10.14469/hpc/13832"><text x="0" y="0" stroke="none" fill="#c90000" transform="matrix(0.05 0 0 0.05 108 32.9299)" font-style="normal" font-weight="normal" font-size="200px" font-family="Helvetica Neue" >
-1,818.934623</text>
<text x="0" y="0" stroke="none" fill="#c90000" transform="matrix(0.05 0 0 0.05 108 44.8599)" font-style="normal" font-weight="normal" font-size="200px" font-family="Helvetica Neue" >
13831,13832</text></a>
<path stroke="none" fill="#c90000" transform="matrix(0.05 0 0 0.05 -46 -146)" d="M 3818.09,4435 L 2860,4435 L 2860,4405 L 3818.09,4405 Z " />
<path stroke="none" fill="#c90000" transform="matrix(0.05 0 0 0.05 -46 -146)" d="M 4080,4420 C 4080,4420 3779.53,4496.12 3779.53,4496.12 C 3779.53,4496.12 3817.09,4453.3 3817.09,4420 C 3817.09,4386.26 3779.53,4342.88 3779.53,4342.88 C 3779.53,4342.88 4080,4420 4080,4420 C 4080,4420 4080,4420 4080,4420 " />
<path stroke="#c90000" stroke-width="1" fill="none" transform="matrix(0.05 0 0 0.05 -46 -146)" d="M 4080,4420 C 4080,4420 3779.53,4496.12 3779.53,4496.12 C 3779.53,4496.12 3817.09,4453.3 3817.09,4420 C 3817.09,4386.26 3779.53,4342.88 3779.53,4342.88 C 3779.53,4342.88 4080,4420 4080,4420 C 4080,4420 4080,4420 4080,4420 " />
<path stroke="none" fill="#c90000" transform="matrix(0.05 0 0 0.05 -46 -146)" d="M 7698.09,4535 L 6320,4535 L 6320,4505 L 7698.09,4505 Z " />
<path stroke="none" fill="#c90000" transform="matrix(0.05 0 0 0.05 -46 -146)" d="M 7960,4520 C 7960,4520 7659.53,4596.12 7659.53,4596.12 C 7659.53,4596.12 7697.09,4553.3 7697.09,4520 C 7697.09,4486.26 7659.53,4442.88 7659.53,4442.88 C 7659.53,4442.88 7960,4520 7960,4520 C 7960,4520 7960,4520 7960,4520 " />
<path stroke="#c90000" stroke-width="1" fill="none" transform="matrix(0.05 0 0 0.05 -46 -146)" d="M 7960,4520 C 7960,4520 7659.53,4596.12 7659.53,4596.12 C 7659.53,4596.12 7697.09,4553.3 7697.09,4520 C 7697.09,4486.26 7659.53,4442.88 7659.53,4442.88 C 7659.53,4442.88 7960,4520 7960,4520 C 7960,4520 7960,4520 7960,4520 " />
<path stroke="#c90000" stroke-width="30" fill="none" transform="matrix(0.05 0 0 0.05 -46 -146)" d="M 6568.58,3960.34 C 6417.08,4023.39 6345.29,4197.53 6408.34,4349.02 C 6440.64,4426.64 6507.24,4489.01 6586.81,4516.15 " />
<path stroke="none" fill="#c90000" transform="matrix(0.05 0 0 0.05 -46 -146)" d="M 6797.02,4509.26 C 6797.02,4509.26 6559.75,4578.2 6559.75,4578.2 C 6559.75,4578.2 6588.11,4542.87 6586.81,4516.15 C 6585.51,4489.44 6553.81,4456.08 6553.81,4456.08 C 6553.81,4456.08 6797.02,4509.26 6797.02,4509.26 C 6797.02,4509.26 6797.02,4509.26 6797.02,4509.26 " />
<path stroke="#c90000" stroke-width="1" fill="none" transform="matrix(0.05 0 0 0.05 -46 -146)" d="M 6797.02,4509.26 C 6797.02,4509.26 6559.75,4578.2 6559.75,4578.2 C 6559.75,4578.2 6588.11,4542.87 6586.81,4516.15 C 6585.51,4489.44 6553.81,4456.08 6553.81,4456.08 C 6553.81,4456.08 6797.02,4509.26 6797.02,4509.26 C 6797.02,4509.26 6797.02,4509.26 6797.02,4509.26 " />
<text x="0" y="0" stroke="none" fill="#c90000" transform="matrix(0.05 0 0 0.05 287 54)" font-style="normal" font-weight="normal" font-size="200px" font-family="Helvetica" >
Ethene</text>
<a target="_blank" xlink:href="https://doi.org/10.14469/hpc/13799"><text x="0" y="0" stroke="none" fill="#c90000" transform="matrix(0.05 0 0 0.05 287 65.9299)" font-style="normal" font-weight="normal" font-size="200px" font-family="Helvetica Neue" >
-78.502983</text>
<text x="0" y="0" stroke="none" fill="#c90000" transform="matrix(0.05 0 0 0.05 287 77.8599)" font-style="normal" font-weight="normal" font-size="200px" font-family="Helvetica Neue" >
13799</text></a>
<a target="_blank" xlink:href="https://doi.org/10.14469/hpc/13836"><text x="0" y="0" stroke="none" fill="#c90000" transform="matrix(0.05 0 0 0.05 187.76 122)" font-style="normal" font-weight="normal" font-size="200px" font-family="Helvetica Neue" >
-1,818.935368</text>
<text x="0" y="0" stroke="none" fill="#c90000" transform="matrix(0.05 0 0 0.05 187.76 133.93)" font-style="normal" font-weight="normal" font-size="200px" font-family="Helvetica Neue" >
13836</text></a>
<path stroke="#0000ff" stroke-width="80" fill="none" transform="matrix(0.05 0 0 0.05 -46 -146)" d="M 2066.07,3994.94 C 2005.38,4055.61 1975.8,4228.08 2000.05,4379.9 C 2024.3,4531.73 2093.24,4605.72 2153.93,4545.06 C 2153.94,4545.05 2153.94,4545.05 2153.95,4545.04 " />
<path stroke="none" fill="#0000ff" transform="matrix(0.05 0 0 0.05 -46 -146)" d="M 2219.94,4160.06 C 2219.94,4160.06 1995.91,4016.32 1995.91,4016.32 C 1995.91,4016.32 2054.76,4005.5 2066.07,3994.94 C 2077.38,3984.39 2092.26,3926.39 2092.26,3926.39 C 2092.26,3926.39 2219.94,4160.06 2219.94,4160.06 C 2219.94,4160.06 2219.94,4160.06 2219.94,4160.06 " />
<path stroke="#0000ff" stroke-width="1" fill="none" transform="matrix(0.05 0 0 0.05 -46 -146)" d="M 2219.94,4160.06 C 2219.94,4160.06 1995.91,4016.32 1995.91,4016.32 C 1995.91,4016.32 2054.76,4005.5 2066.07,3994.94 C 2077.38,3984.39 2092.26,3926.39 2092.26,3926.39 C 2092.26,3926.39 2219.94,4160.06 2219.94,4160.06 C 2219.94,4160.06 2219.94,4160.06 2219.94,4160.06 " />
<text x="0" y="0" stroke="none" fill="#007100" transform="matrix(0.05 0 0 0.05 292 209)" font-style="normal" font-weight="normal" font-size="200px" font-family="Helvetica Neue" >
TS,IRC</text>
<a target="_blank" xlink:href="https://doi.org/10.14469/hpc/13824"><text x="0" y="0" stroke="none" fill="#007100" transform="matrix(0.05 0 0 0.05 292 220.93)" font-style="normal" font-weight="normal" font-size="200px" font-family="Helvetica Neue" >
-1818.920826</text>
<text x="0" y="0" stroke="none" fill="#007100" transform="matrix(0.05 0 0 0.05 292 232.86)" font-style="normal" font-weight="normal" font-size="200px" font-family="Helvetica Neue" >
13820,13824</text></a>
<text x="0" y="0" stroke="none" fill="#007100" transform="matrix(0.05 0 0 0.05 197.48 214.304)" font-style="normal" font-weight="normal" font-size="240px" font-family="Helvetica" >
Ru</text>
<text x="0" y="0" stroke="none" fill="#007100" transform="matrix(0.05 0 0 0.05 200.817 184.304)" font-style="normal" font-weight="normal" font-size="240px" font-family="Helvetica" >
Cl</text>
<path stroke="none" fill="#007100" transform="matrix(0.05 0 0 0.05 -46 -146)" d="M 5038.02,6993.93 L 5007.98,6993.93 L 5007.98,6652.58 L 5038.02,6652.58 L 5038.02,6993.93 Z " />
<text x="0" y="0" stroke="none" fill="#007100" transform="matrix(0.05 0 0 0.05 200.817 244.304)" font-style="normal" font-weight="normal" font-size="240px" font-family="Helvetica" >
Cl</text>
<path stroke="none" fill="#007100" transform="matrix(0.05 0 0 0.05 -46 -146)" d="M 5007.98,7249.93 L 5038.02,7249.93 L 5038.02,7590.58 L 5007.98,7590.58 L 5007.98,7249.93 Z " />
<text x="0" y="0" stroke="none" fill="#007100" transform="matrix(0.05 0 0 0.05 161.497 229.304)" font-style="normal" font-weight="normal" font-size="240px" font-family="Helvetica" >
R</text>
<text x="0" y="0" stroke="none" fill="#007100" transform="matrix(0.05 0 0 0.05 170.163 232.063)" font-style="normal" font-weight="normal" font-size="180px" font-family="Helvetica" >
3</text>
<text x="0" y="0" stroke="none" fill="#007100" transform="matrix(0.05 0 0 0.05 175.168 229.304)" font-style="normal" font-weight="normal" font-size="240px" font-family="Helvetica" >
P</text>
<path stroke="none" fill="#007100" transform="matrix(0.05 0 0 0.05 -46 -146)" d="M 4843.66,7206.2 L 4858.69,7232.22 L 4642.64,7408.89 L 4582.64,7304.97 L 4843.66,7206.2 Z " />
<text x="0" y="0" stroke="none" fill="#007100" transform="matrix(0.05 0 0 0.05 161.497 199.304)" font-style="normal" font-weight="normal" font-size="240px" font-family="Helvetica" >
R</text>
<text x="0" y="0" stroke="none" fill="#007100" transform="matrix(0.05 0 0 0.05 170.163 202.063)" font-style="normal" font-weight="normal" font-size="180px" font-family="Helvetica" >
3</text>
<text x="0" y="0" stroke="none" fill="#007100" transform="matrix(0.05 0 0 0.05 175.168 199.304)" font-style="normal" font-weight="normal" font-size="240px" font-family="Helvetica" >
P</text>
<path stroke="none" fill="#007100" transform="matrix(0.05 0 0 0.05 -46 -146)" d="M 4858.62,7007.75 L 4843.6,7033.77 L 4815.41,7022.49 L 4834.76,6988.98 L 4858.62,7007.75 Z " />
<path stroke="none" fill="#007100" transform="matrix(0.05 0 0 0.05 -46 -146)" d="M 4813.76,6972.46 L 4790.6,7012.56 L 4762.42,7001.28 L 4789.9,6953.69 L 4813.76,6972.46 Z " />
<path stroke="none" fill="#007100" transform="matrix(0.05 0 0 0.05 -46 -146)" d="M 4768.9,6937.16 L 4737.61,6991.35 L 4709.43,6980.07 L 4745.04,6918.4 L 4768.9,6937.16 Z " />
<path stroke="none" fill="#007100" transform="matrix(0.05 0 0 0.05 -46 -146)" d="M 4724.03,6901.87 L 4684.62,6970.14 L 4656.43,6958.86 L 4700.17,6883.1 L 4724.03,6901.87 Z " />
<path stroke="none" fill="#007100" transform="matrix(0.05 0 0 0.05 -46 -146)" d="M 4679.17,6866.58 L 4631.62,6948.93 L 4603.44,6937.65 L 4655.31,6847.81 L 4679.17,6866.58 Z " />
<path stroke="none" fill="#007100" transform="matrix(0.05 0 0 0.05 -46 -146)" d="M 4634.31,6831.29 L 4578.63,6927.72 L 4550.45,6916.45 L 4610.45,6812.52 L 4634.31,6831.29 Z " />
<path stroke="none" fill="#007100" transform="matrix(0.05 0 0 0.05 -46 -146)" d="M 5198.7,7135.02 L 5198.7,7104.98 L 5627.65,7104.65 L 5620.32,7134.83 L 5198.7,7135.02 Z " />
<path stroke="none" fill="#007100" transform="matrix(0.05 0 0 0.05 -46 -146)" d="M 5198.7,7059.91 L 5198.7,7029.86 L 5613.11,7029.86 L 5613.11,7059.91 L 5198.7,7059.91 Z " />
<text x="0" y="0" stroke="none" fill="#007100" transform="matrix(0.05 0 0 0.05 259.787 206.544)" font-style="normal" font-weight="normal" font-size="240px" font-family="Helvetica" >
H</text>
<path stroke="none" fill="#007100" transform="matrix(0.05 0 0 0.05 -46 -146)" d="M 5679.09,7120.53 L 5671.32,7091.5 L 5699.5,7080.6 L 5708.95,7115.88 L 5679.09,7120.53 Z " />
<path stroke="none" fill="#007100" transform="matrix(0.05 0 0 0.05 -46 -146)" d="M 5734.08,7111.97 L 5723.22,7071.43 L 5751.41,7060.53 L 5763.94,7107.32 L 5734.08,7111.97 Z " />
<path stroke="none" fill="#007100" transform="matrix(0.05 0 0 0.05 -46 -146)" d="M 5789.07,7103.41 L 5775.12,7051.35 L 5803.31,7040.45 L 5818.93,7098.77 L 5789.07,7103.41 Z " />
<path stroke="none" fill="#007100" transform="matrix(0.05 0 0 0.05 -46 -146)" d="M 5844.06,7094.86 L 5827.03,7031.28 L 5855.21,7020.37 L 5873.92,7090.21 L 5844.06,7094.86 Z " />
<path stroke="none" fill="#007100" transform="matrix(0.05 0 0 0.05 -46 -146)" d="M 5899.05,7086.3 L 5878.93,7011.2 L 5907.12,7000.3 L 5928.91,7081.66 L 5899.05,7086.3 Z " />
<path stroke="none" fill="#007100" transform="matrix(0.05 0 0 0.05 -46 -146)" d="M 5954.03,7077.75 L 5930.83,6991.13 L 5959.02,6980.22 L 5983.9,7073.1 L 5954.03,7077.75 Z " />
<path stroke="none" fill="#007100" transform="matrix(0.05 0 0 0.05 -46 -146)" d="M 6009.02,7069.19 L 5982.74,6971.05 L 6010.92,6960.15 L 6038.89,7064.54 L 6009.02,7069.19 Z " />
<path stroke="none" fill="#007100" transform="matrix(0.05 0 0 0.05 -46 -146)" d="M 6064.01,7060.63 L 6034.64,6950.97 L 6062.82,6940.07 L 6093.87,7055.99 L 6064.01,7060.63 Z " />
<text x="0" y="0" stroke="none" fill="#007100" transform="matrix(0.05 0 0 0.05 256.797 229.304)" font-style="normal" font-weight="normal" font-size="240px" font-family="Helvetica" >
H</text>
<path stroke="none" fill="#007100" transform="matrix(0.05 0 0 0.05 -46 -146)" d="M 5620.32,7134.83 L 5627.65,7104.65 L 6048.66,7296.48 L 5988.66,7400.4 L 5620.32,7134.83 Z " />
<a target="_blank" xlink:href="https://doi.org/10.14469/hpc/13801"><text x="0" y="0" stroke="none" fill="#007100" transform="matrix(0.05 0 0 0.05 191.05 263)" font-style="normal" font-weight="normal" font-size="200px" font-family="Helvetica Neue" >
-1,818.929075</text>
<text x="0" y="0" stroke="none" fill="#007100" transform="matrix(0.05 0 0 0.05 191.05 274.93)" font-style="normal" font-weight="normal" font-size="200px" font-family="Helvetica Neue" >
13801</text></a>
<text x="0" y="0" stroke="none" fill="#007100" transform="matrix(0.05 0 0 0.05 461 168)" font-style="normal" font-weight="normal" font-size="200px" font-family="Helvetica Neue" >
TS, </text>
<text x="0" y="0" stroke="none" fill="#007100" transform="matrix(0.05 0 0 0.05 478.78 168)" font-style="normal" font-weight="normal" font-size="200px" font-family="Helvetica Neue" >
IRC</text>
<a target="_blank" xlink:href="https://doi.org/10.14469/hpc/13803"><text x="0" y="0" stroke="none" fill="#007100" transform="matrix(0.05 0 0 0.05 461 179.93)" font-style="normal" font-weight="normal" font-size="200px" font-family="Helvetica Neue" >
-1818.928461</text>
<text x="0" y="0" stroke="none" fill="#007100" transform="matrix(0.05 0 0 0.05 461 191.86)" font-style="normal" font-weight="normal" font-size="200px" font-family="Helvetica" >
13798,</text>
<text x="0" y="0" stroke="none" fill="#007100" transform="matrix(0.05 0 0 0.05 494.364 191.86)" font-style="normal" font-weight="normal" font-size="200px" font-family="Helvetica" >
13803</text></a>
<text x="0" y="0" stroke="none" fill="#007100" transform="matrix(0.05 0 0 0.05 393.33 209.304)" font-style="normal" font-weight="normal" font-size="240px" font-family="Helvetica" >
Ru</text>
<path stroke="none" fill="#007100" transform="matrix(0.05 0 0 0.05 -46 -146)" d="M 9068.47,7169.72 L 9089.72,7148.47 L 9523.84,7482.21 L 9364.2,7444.2 L 9315.36,7477.27 L 9068.47,7169.72 Z " />
<text x="0" y="0" stroke="none" fill="#007100" transform="matrix(0.05 0 0 0.05 383.241 180.324)" font-style="normal" font-weight="normal" font-size="240px" font-family="Helvetica" >
Cl</text>
<path stroke="none" fill="#007100" transform="matrix(0.05 0 0 0.05 -46 -146)" d="M 8917.35,6877.35 L 8888.33,6885.12 L 8803.47,6568.22 L 8832.5,6560.45 L 8917.35,6877.35 Z " />
<text x="0" y="0" stroke="none" fill="#007100" transform="matrix(0.05 0 0 0.05 383.241 238.284)" font-style="normal" font-weight="normal" font-size="240px" font-family="Helvetica" >
Cl</text>
<path stroke="none" fill="#007100" transform="matrix(0.05 0 0 0.05 -46 -146)" d="M 8892.38,7139.75 L 8921.41,7147.53 L 8831.46,7483.44 L 8802.43,7475.67 L 8892.38,7139.75 Z " />
<text x="0" y="0" stroke="none" fill="#007100" transform="matrix(0.05 0 0 0.05 357.347 224.304)" font-style="normal" font-weight="normal" font-size="240px" font-family="Helvetica" >
R</text>
<text x="0" y="0" stroke="none" fill="#007100" transform="matrix(0.05 0 0 0.05 366.013 227.063)" font-style="normal" font-weight="normal" font-size="180px" font-family="Helvetica" >
3</text>
<text x="0" y="0" stroke="none" fill="#007100" transform="matrix(0.05 0 0 0.05 371.018 224.304)" font-style="normal" font-weight="normal" font-size="240px" font-family="Helvetica" >
P</text>
<path stroke="none" fill="#007100" transform="matrix(0.05 0 0 0.05 -46 -146)" d="M 8760.66,7106.2 L 8775.69,7132.22 L 8559.64,7308.89 L 8499.64,7204.97 L 8760.66,7106.2 Z " />
<text x="0" y="0" stroke="none" fill="#007100" transform="matrix(0.05 0 0 0.05 357.347 194.304)" font-style="normal" font-weight="normal" font-size="240px" font-family="Helvetica" >
R</text>
<text x="0" y="0" stroke="none" fill="#007100" transform="matrix(0.05 0 0 0.05 366.013 197.063)" font-style="normal" font-weight="normal" font-size="180px" font-family="Helvetica" >
3</text>
<text x="0" y="0" stroke="none" fill="#007100" transform="matrix(0.05 0 0 0.05 371.018 194.304)" font-style="normal" font-weight="normal" font-size="240px" font-family="Helvetica" >
P</text>
<path stroke="none" fill="#007100" transform="matrix(0.05 0 0 0.05 -46 -146)" d="M 8775.62,6907.75 L 8760.6,6933.77 L 8732.41,6922.49 L 8751.76,6888.98 L 8775.62,6907.75 Z " />
<path stroke="none" fill="#007100" transform="matrix(0.05 0 0 0.05 -46 -146)" d="M 8730.76,6872.46 L 8707.6,6912.56 L 8679.42,6901.28 L 8706.9,6853.69 L 8730.76,6872.46 Z " />
<path stroke="none" fill="#007100" transform="matrix(0.05 0 0 0.05 -46 -146)" d="M 8685.9,6837.16 L 8654.61,6891.35 L 8626.43,6880.07 L 8662.04,6818.4 L 8685.9,6837.16 Z " />
<path stroke="none" fill="#007100" transform="matrix(0.05 0 0 0.05 -46 -146)" d="M 8641.03,6801.87 L 8601.62,6870.14 L 8573.43,6858.86 L 8617.17,6783.1 L 8641.03,6801.87 Z " />
<path stroke="none" fill="#007100" transform="matrix(0.05 0 0 0.05 -46 -146)" d="M 8596.17,6766.58 L 8548.62,6848.93 L 8520.44,6837.65 L 8572.31,6747.81 L 8596.17,6766.58 Z " />
<path stroke="none" fill="#007100" transform="matrix(0.05 0 0 0.05 -46 -146)" d="M 8551.31,6731.29 L 8495.63,6827.72 L 8467.45,6816.45 L 8527.45,6712.52 L 8551.31,6731.29 Z " />
<text x="0" y="0" stroke="none" fill="#007100" transform="matrix(0.05 0 0 0.05 396.667 251.734)" font-style="normal" font-weight="normal" font-size="240px" font-family="Helvetica" >
H</text>
<path stroke="none" fill="#007100" transform="matrix(0.05 0 0 0.05 -46 -146)" d="M 9315.36,7477.27 L 9364.2,7444.2 L 9368.5,7460.36 L 9056.03,7773.77 L 9034.78,7752.53 L 9315.36,7477.27 Z " />
<text x="0" y="0" stroke="none" fill="#007100" transform="matrix(0.05 0 0 0.05 446.857 238.284)" font-style="normal" font-weight="normal" font-size="240px" font-family="Helvetica" >
H</text>
<path stroke="none" fill="#007100" transform="matrix(0.05 0 0 0.05 -46 -146)" d="M 9368.5,7460.36 L 9364.2,7444.2 L 9523.84,7482.21 L 9826.1,7552.49 L 9818.32,7581.51 L 9368.5,7460.36 Z " />
<path stroke="none" fill="#007100" transform="matrix(0.05 0 0 0.05 -46 -146)" d="M 9337.54,6586.98 L 9333.63,6545.68 L 9852.53,6949.51 L 9773.58,6926.5 L 9337.54,6586.98 Z " />
<path stroke="none" fill="#007100" transform="matrix(0.05 0 0 0.05 -46 -146)" d="M 9336.3,6682.2 L 9354.8,6658.53 L 9622.99,6868.15 L 9604.49,6891.82 L 9336.3,6682.2 Z " />
<path stroke="none" fill="#007100" transform="matrix(0.05 0 0 0.05 -46 -146)" d="M 9021.63,6949.47 L 8999.02,6929.69 L 9045.51,6876.52 L 9068.13,6896.3 L 9021.63,6949.47 Z " />
<path stroke="none" fill="#007100" transform="matrix(0.05 0 0 0.05 -46 -146)" d="M 9114.63,6843.13 L 9092.01,6823.35 L 9138.51,6770.19 L 9161.12,6789.97 L 9114.63,6843.13 Z " />
<path stroke="none" fill="#007100" transform="matrix(0.05 0 0 0.05 -46 -146)" d="M 9207.62,6736.8 L 9185,6717.02 L 9231.5,6663.85 L 9254.12,6683.63 L 9207.62,6736.8 Z " />
<path stroke="none" fill="#007100" transform="matrix(0.05 0 0 0.05 -46 -146)" d="M 9300.61,6630.46 L 9277.99,6610.68 L 9333.63,6545.68 L 9337.54,6586.98 L 9300.61,6630.46 Z " />
<path stroke="none" fill="#007100" transform="matrix(0.05 0 0 0.05 -46 -146)" d="M 9115.71,7018.26 L 9112.85,6988.35 L 9189.97,6980.96 L 9192.84,7010.87 L 9115.71,7018.26 Z " />
<path stroke="none" fill="#007100" transform="matrix(0.05 0 0 0.05 -46 -146)" d="M 9269.96,7003.48 L 9267.1,6973.57 L 9344.22,6966.18 L 9347.09,6996.09 L 9269.96,7003.48 Z " />
<path stroke="none" fill="#007100" transform="matrix(0.05 0 0 0.05 -46 -146)" d="M 9424.21,6988.7 L 9421.34,6958.79 L 9498.47,6951.4 L 9501.33,6981.31 L 9424.21,6988.7 Z " />
<path stroke="none" fill="#007100" transform="matrix(0.05 0 0 0.05 -46 -146)" d="M 9578.46,6973.92 L 9575.59,6944.01 L 9652.72,6936.62 L 9655.58,6966.53 L 9578.46,6973.92 Z " />
<path stroke="none" fill="#007100" transform="matrix(0.05 0 0 0.05 -46 -146)" d="M 9732.71,6959.14 L 9729.84,6929.23 L 9806.97,6921.84 L 9809.83,6951.76 L 9732.71,6959.14 Z " />
<path stroke="#ff0000" stroke-width="80" fill="none" transform="matrix(0.05 0 0 0.05 -46 -146)" d="M 9273.96,6934.97 C 9213.28,6874.27 9144.33,6948.21 9120.06,7100.02 C 9095.8,7251.83 9125.36,7424.32 9186.04,7485.03 C 9186.04,7485.03 9186.05,7485.04 9186.05,7485.04 " />
<path stroke="none" fill="#ff0000" transform="matrix(0.05 0 0 0.05 -46 -146)" d="M 9339.94,7319.94 C 9339.94,7319.94 9153.55,6899.83 9153.55,6899.83 C 9153.55,6899.83 9228.88,6943.04 9273.96,6934.97 C 9319.05,6926.91 9375.53,6860.13 9375.53,6860.13 C 9375.53,6860.13 9339.94,7319.94 9339.94,7319.94 C 9339.94,7319.94 9339.94,7319.94 9339.94,7319.94 " />
<path stroke="#ff0000" stroke-width="1" fill="none" transform="matrix(0.05 0 0 0.05 -46 -146)" d="M 9339.94,7319.94 C 9339.94,7319.94 9153.55,6899.83 9153.55,6899.83 C 9153.55,6899.83 9228.88,6943.04 9273.96,6934.97 C 9319.05,6926.91 9375.53,6860.13 9375.53,6860.13 C 9375.53,6860.13 9339.94,7319.94 9339.94,7319.94 C 9339.94,7319.94 9339.94,7319.94 9339.94,7319.94 " />
<text x="0" y="0" stroke="none" fill="#000000" transform="matrix(0.05 0 0 0.05 388 266)" font-style="normal" font-weight="normal" font-size="200px" font-family="Helvetica Neue" fill-opacity="0" >
-1818.930352</text>
<text x="0" y="0" stroke="none" fill="#000000" transform="matrix(0.05 0 0 0.05 388 277.93)" font-style="normal" font-weight="normal" font-size="200px" font-family="Helvetica Neue" fill-opacity="0" >
13818,</text>
<a target="_blank" xlink:href="https://doi.org/10.14469/hpc/13797"><text x="0" y="0" stroke="none" fill="#007100" transform="matrix(0.05 0 0 0.05 545.05 275)" font-style="normal" font-weight="normal" font-size="200px" font-family="Helvetica Neue" >
-1818.939388</text>
<text x="0" y="0" stroke="none" fill="#007100" transform="matrix(0.05 0 0 0.05 545.05 286.93)" font-style="normal" font-weight="normal" font-size="200px" font-family="Helvetica Neue" >
13797</text></a>
<text x="0" y="0" stroke="none" fill="#007100" transform="matrix(0.05 0 0 0.05 583.817 211.304)" font-style="normal" font-weight="normal" font-size="240px" font-family="Helvetica" >
Ru</text>
<path stroke="none" fill="#007100" transform="matrix(0.05 0 0 0.05 -46 -146)" d="M 12829.2,7222.35 L 12850.1,7200.76 L 13117.9,7411.45 L 13121.4,7484.2 L 13112,7573.33 L 12829.2,7222.35 L 12829.2,7222.35 Z " />
<path stroke="none" fill="#007100" transform="matrix(0.05 0 0 0.05 -46 -146)" d="M 13136,7490.39 L 13121.4,7484.2 L 13131.7,7454.62 L 13513.4,7073.45 L 13545.8,7060 L 13568.2,7060 L 13136,7490.39 Z " />
<path stroke="none" fill="#007100" transform="matrix(0.05 0 0 0.05 -46 -146)" d="M 13568.2,7060 L 13545.8,7060 L 13513.4,7046.55 L 13110.8,6646.43 L 13132,6625.17 L 13568.2,7060 Z " />
<path stroke="none" fill="#007100" transform="matrix(0.05 0 0 0.05 -46 -146)" d="M 13040.8,6630.28 L 13124.3,6716.52 L 13100.3,6735 L 13021.6,6653.59 L 13040.8,6630.28 L 13040.8,6630.28 Z " />
<path stroke="none" fill="#007100" transform="matrix(0.05 0 0 0.05 -46 -146)" d="M 13001.1,6678.32 L 13074.9,6754.59 L 13051,6773.07 L 12981.9,6701.63 L 13001.1,6678.32 L 13001.1,6678.32 Z " />
<path stroke="none" fill="#007100" transform="matrix(0.05 0 0 0.05 -46 -146)" d="M 12961.5,6726.36 L 13025.6,6792.66 L 13001.7,6811.14 L 12942.2,6749.67 L 12961.5,6726.36 L 12961.5,6726.36 Z " />
<path stroke="none" fill="#007100" transform="matrix(0.05 0 0 0.05 -46 -146)" d="M 12921.8,6774.4 L 12976.3,6830.73 L 12952.4,6849.21 L 12902.5,6797.71 L 12921.8,6774.4 L 12921.8,6774.4 Z " />
<path stroke="none" fill="#007100" transform="matrix(0.05 0 0 0.05 -46 -146)" d="M 12882.1,6822.44 L 12927,6868.8 L 12903.1,6887.28 L 12862.9,6845.75 L 12882.1,6822.44 L 12882.1,6822.44 Z " />
<path stroke="none" fill="#007100" transform="matrix(0.05 0 0 0.05 -46 -146)" d="M 12842.5,6870.48 L 12877.7,6906.87 L 12853.7,6925.35 L 12823.2,6893.79 L 12842.5,6870.48 L 12842.5,6870.48 Z " />
<path stroke="none" fill="#007100" transform="matrix(0.05 0 0 0.05 -46 -146)" d="M 12802.8,6918.51 L 12828.4,6944.94 L 12804.4,6963.42 L 12783.5,6941.83 L 12802.8,6918.51 L 12802.8,6918.51 Z " />
<text x="0" y="0" stroke="none" fill="#007100" transform="matrix(0.05 0 0 0.05 583.817 181.304)" font-style="normal" font-weight="normal" font-size="240px" font-family="Helvetica" >
Cl</text>
<path stroke="none" fill="#007100" transform="matrix(0.05 0 0 0.05 -46 -146)" d="M 12698,6933.93 L 12668,6933.93 L 12668,6592.58 L 12698,6592.58 L 12698,6933.93 Z " />
<text x="0" y="0" stroke="none" fill="#007100" transform="matrix(0.05 0 0 0.05 583.817 241.304)" font-style="normal" font-weight="normal" font-size="240px" font-family="Helvetica" >
Cl</text>
<path stroke="none" fill="#007100" transform="matrix(0.05 0 0 0.05 -46 -146)" d="M 12668,7185.93 L 12698,7185.93 L 12698,7530.58 L 12668,7530.58 L 12668,7185.93 Z " />
<path stroke="none" fill="#007100" transform="matrix(0.05 0 0 0.05 -46 -146)" d="M 12925.4,7075.02 L 12925.4,7044.98 L 12994.4,7044.98 L 12994.4,7075.02 L 12925.4,7075.02 L 12925.4,7075.02 Z " />
<path stroke="none" fill="#007100" transform="matrix(0.05 0 0 0.05 -46 -146)" d="M 13270.1,7044.98 L 13270.1,7075.02 L 13212.9,7075.02 L 13215.3,7044.98 L 13270.1,7044.98 L 13270.1,7044.98 Z " />
<path stroke="none" fill="#007100" transform="matrix(0.05 0 0 0.05 -46 -146)" d="M 13339,7075.02 L 13339,7044.98 L 13407.9,7044.98 L 13407.9,7075.02 L 13339,7075.02 L 13339,7075.02 Z " />
<path stroke="none" fill="#007100" transform="matrix(0.05 0 0 0.05 -46 -146)" d="M 13476.9,7075.02 L 13476.9,7044.98 L 13545.8,7044.98 L 13545.8,7075.02 L 13476.9,7075.02 L 13476.9,7075.02 Z " />
<text x="0" y="0" stroke="none" fill="#007100" transform="matrix(0.05 0 0 0.05 544.497 226.304)" font-style="normal" font-weight="normal" font-size="240px" font-family="Helvetica" >
R</text>
<text x="0" y="0" stroke="none" fill="#007100" transform="matrix(0.05 0 0 0.05 553.163 229.063)" font-style="normal" font-weight="normal" font-size="180px" font-family="Helvetica" >
3</text>
<text x="0" y="0" stroke="none" fill="#007100" transform="matrix(0.05 0 0 0.05 558.168 226.304)" font-style="normal" font-weight="normal" font-size="240px" font-family="Helvetica" >
P</text>
<path stroke="none" fill="#007100" transform="matrix(0.05 0 0 0.05 -46 -146)" d="M 12553.7,7117.3 L 12568.7,7143.32 L 12302.6,7348.89 L 12242.6,7244.97 L 12553.7,7117.3 Z " />
<text x="0" y="0" stroke="none" fill="#007100" transform="matrix(0.05 0 0 0.05 544.497 196.304)" font-style="normal" font-weight="normal" font-size="240px" font-family="Helvetica" >
R</text>
<text x="0" y="0" stroke="none" fill="#007100" transform="matrix(0.05 0 0 0.05 553.163 199.063)" font-style="normal" font-weight="normal" font-size="180px" font-family="Helvetica" >
3</text>
<text x="0" y="0" stroke="none" fill="#007100" transform="matrix(0.05 0 0 0.05 558.168 196.304)" font-style="normal" font-weight="normal" font-size="240px" font-family="Helvetica" >
P</text>
<path stroke="none" fill="#007100" transform="matrix(0.05 0 0 0.05 -46 -146)" d="M 12568.7,6976.64 L 12553.7,7002.67 L 12525.8,6990.8 L 12544.5,6958.46 L 12568.7,6976.64 Z " />
<path stroke="none" fill="#007100" transform="matrix(0.05 0 0 0.05 -46 -146)" d="M 12523,6942.32 L 12501.1,6980.27 L 12473.2,6968.41 L 12498.8,6924.14 L 12523,6942.32 Z " />
<path stroke="none" fill="#007100" transform="matrix(0.05 0 0 0.05 -46 -146)" d="M 12477.3,6908 L 12448.5,6957.88 L 12420.7,6946.02 L 12453.1,6889.81 L 12477.3,6908 Z " />
<path stroke="none" fill="#007100" transform="matrix(0.05 0 0 0.05 -46 -146)" d="M 12431.7,6873.68 L 12396,6935.49 L 12368.1,6923.62 L 12407.5,6855.49 L 12431.7,6873.68 Z " />
<path stroke="none" fill="#007100" transform="matrix(0.05 0 0 0.05 -46 -146)" d="M 12386,6839.35 L 12343.4,6913.09 L 12315.6,6901.23 L 12361.8,6821.17 L 12386,6839.35 Z " />
<path stroke="none" fill="#007100" transform="matrix(0.05 0 0 0.05 -46 -146)" d="M 12340.3,6805.03 L 12290.9,6890.7 L 12263,6878.84 L 12316.1,6786.85 L 12340.3,6805.03 Z " />
<path stroke="none" fill="#007100" transform="matrix(0.05 0 0 0.05 -46 -146)" d="M 12294.6,6770.71 L 12238.3,6868.31 L 12210.4,6856.45 L 12270.4,6752.52 L 12294.6,6770.71 Z " />
<text x="0" y="0" stroke="none" fill="#007100" transform="matrix(0.05 0 0 0.05 605.737 262.514)" font-style="normal" font-weight="normal" font-size="240px" font-family="Helvetica" >
H</text>
<path stroke="none" fill="#007100" transform="matrix(0.05 0 0 0.05 -46 -146)" d="M 13112,7573.33 L 13121.4,7484.2 L 13136,7490.39 L 13136.4,7958.13 L 13106.4,7958.13 L 13112,7573.33 Z " />
<text x="0" y="0" stroke="none" fill="#007100" transform="matrix(0.05 0 0 0.05 605.737 202.514)" font-style="normal" font-weight="normal" font-size="240px" font-family="Helvetica" >
H</text>
<path stroke="none" fill="#007100" transform="matrix(0.05 0 0 0.05 -46 -146)" d="M 13131.7,7454.62 L 13121.4,7484.2 L 13117.9,7411.45 L 13061.4,7010.13 L 13181.4,7010.13 L 13131.7,7454.62 Z " />
<text x="0" y="0" stroke="none" fill="#007100" transform="matrix(0.05 0 0 0.05 47 166)" font-style="normal" font-weight="normal" font-size="200px" font-family="Helvetica" >
TS </text>
<text x="0" y="0" stroke="none" fill="#007100" transform="matrix(0.05 0 0 0.05 62.5566 166)" font-style="normal" font-weight="normal" font-size="200px" font-family="Helvetica" >
pseudorotation</text>
<a target="_blank" xlink:href="https://doi.org/10.14469/hpc/13827"><text x="0" y="0" stroke="none" fill="#007100" transform="matrix(0.05 0 0 0.05 47 176.625)" font-style="normal" font-weight="normal" font-size="200px" font-family="Helvetica" >
-1,818.920235</text>
<text x="0" y="0" stroke="none" fill="#007100" transform="matrix(0.05 0 0 0.05 47 187.25)" font-style="normal" font-weight="normal" font-size="200px" font-family="Helvetica" >
13826,13827</text></a>
<path stroke="none" fill="#007100" transform="matrix(0.05 0 0 0.05 -46 -146)" d="M 3803.7,6264.7 L 2789.5,5250.5 L 2810.5,5229.5 L 3824.7,6243.7 Z " />
<path stroke="none" fill="#007100" transform="matrix(0.05 0 0 0.05 -46 -146)" d="M 3999.4,6439.4 C 3999.4,6439.4 3732.82,6281.05 3732.82,6281.05 C 3732.82,6281.05 3789.82,6277.17 3813.49,6253.49 C 3837.17,6229.82 3841.05,6172.82 3841.05,6172.82 C 3841.05,6172.82 3999.4,6439.4 3999.4,6439.4 C 3999.4,6439.4 3999.4,6439.4 3999.4,6439.4 " />
<path stroke="#007100" stroke-width="1" fill="none" transform="matrix(0.05 0 0 0.05 -46 -146)" d="M 3999.4,6439.4 C 3999.4,6439.4 3732.82,6281.05 3732.82,6281.05 C 3732.82,6281.05 3789.82,6277.17 3813.49,6253.49 C 3837.17,6229.82 3841.05,6172.82 3841.05,6172.82 C 3841.05,6172.82 3999.4,6439.4 3999.4,6439.4 C 3999.4,6439.4 3999.4,6439.4 3999.4,6439.4 " />
<path stroke="none" fill="#007100" transform="matrix(0.05 0 0 0.05 -46 -146)" d="M 11458.1,6815 L 10000,6815 L 10000,6785 L 11458.1,6785 Z " />
<path stroke="none" fill="#007100" transform="matrix(0.05 0 0 0.05 -46 -146)" d="M 11720,6800 C 11720,6800 11419.5,6876.12 11419.5,6876.12 C 11419.5,6876.12 11457.1,6833.3 11457.1,6800 C 11457.1,6766.26 11419.5,6722.88 11419.5,6722.88 C 11419.5,6722.88 11720,6800 11720,6800 C 11720,6800 11720,6800 11720,6800 " />
<path stroke="#007100" stroke-width="1" fill="none" transform="matrix(0.05 0 0 0.05 -46 -146)" d="M 11720,6800 C 11720,6800 11419.5,6876.12 11419.5,6876.12 C 11419.5,6876.12 11457.1,6833.3 11457.1,6800 C 11457.1,6766.26 11419.5,6722.88 11419.5,6722.88 C 11419.5,6722.88 11720,6800 11720,6800 C 11720,6800 11720,6800 11720,6800 " />
<path stroke="none" fill="#c90000" transform="matrix(0.05 0 0 0.05 -46 -146)" d="M 11362.5,4515 L 9980,4515 L 9980,4485 L 11362.5,4485 Z " />
<path stroke="none" fill="#c90000" transform="matrix(0.05 0 0 0.05 -46 -146)" d="M 11624.4,4500 C 11624.4,4500 11323.9,4576.12 11323.9,4576.12 C 11323.9,4576.12 11361.5,4533.3 11361.5,4500 C 11361.5,4466.26 11323.9,4422.88 11323.9,4422.88 C 11323.9,4422.88 11624.4,4500 11624.4,4500 C 11624.4,4500 11624.4,4500 11624.4,4500 " />
<path stroke="#c90000" stroke-width="1" fill="none" transform="matrix(0.05 0 0 0.05 -46 -146)" d="M 11624.4,4500 C 11624.4,4500 11323.9,4576.12 11323.9,4576.12 C 11323.9,4576.12 11361.5,4533.3 11361.5,4500 C 11361.5,4466.26 11323.9,4422.88 11323.9,4422.88 C 11323.9,4422.88 11624.4,4500 11624.4,4500 C 11624.4,4500 11624.4,4500 11624.4,4500 " />
<text x="0" y="0" stroke="none" fill="#007100" transform="matrix(0.05 0 0 0.05 293 171)" font-style="normal" font-weight="normal" font-size="200px" font-family="Helvetica" >
Ethene</text>
<text x="0" y="0" stroke="none" fill="#007100" transform="matrix(0.05 0 0 0.05 293 182.93)" font-style="normal" font-weight="normal" font-size="200px" font-family="Helvetica" >
1</text>
<text x="0" y="0" stroke="none" fill="#007100" transform="matrix(0.05 0 0 0.05 298.562 182.93)" font-style="normal" font-weight="normal" font-size="200px" font-family="Helvetica Neue" >
3799</text>
<path stroke="none" fill="#007100" transform="matrix(0.05 0 0 0.05 -46 -146)" d="M 7818.09,6815 L 6440,6815 L 6440,6785 L 7818.09,6785 Z " />
<path stroke="none" fill="#007100" transform="matrix(0.05 0 0 0.05 -46 -146)" d="M 8080,6800 C 8080,6800 7779.53,6876.12 7779.53,6876.12 C 7779.53,6876.12 7817.09,6833.3 7817.09,6800 C 7817.09,6766.26 7779.53,6722.88 7779.53,6722.88 C 7779.53,6722.88 8080,6800 8080,6800 C 8080,6800 8080,6800 8080,6800 " />
<path stroke="#007100" stroke-width="1" fill="none" transform="matrix(0.05 0 0 0.05 -46 -146)" d="M 8080,6800 C 8080,6800 7779.53,6876.12 7779.53,6876.12 C 7779.53,6876.12 7817.09,6833.3 7817.09,6800 C 7817.09,6766.26 7779.53,6722.88 7779.53,6722.88 C 7779.53,6722.88 8080,6800 8080,6800 C 8080,6800 8080,6800 8080,6800 " />
<path stroke="#007100" stroke-width="30" fill="none" transform="matrix(0.05 0 0 0.05 -46 -146)" d="M 6688.58,6240.34 C 6537.08,6303.39 6465.29,6477.53 6528.34,6629.02 C 6560.64,6706.64 6627.24,6769.01 6706.81,6796.15 " />
<path stroke="none" fill="#007100" transform="matrix(0.05 0 0 0.05 -46 -146)" d="M 6917.02,6789.26 C 6917.02,6789.26 6679.75,6858.2 6679.75,6858.2 C 6679.75,6858.2 6708.11,6822.87 6706.81,6796.15 C 6705.51,6769.44 6673.81,6736.08 6673.81,6736.08 C 6673.81,6736.08 6917.02,6789.26 6917.02,6789.26 C 6917.02,6789.26 6917.02,6789.26 6917.02,6789.26 " />
<path stroke="#007100" stroke-width="1" fill="none" transform="matrix(0.05 0 0 0.05 -46 -146)" d="M 6917.02,6789.26 C 6917.02,6789.26 6679.75,6858.2 6679.75,6858.2 C 6679.75,6858.2 6708.11,6822.87 6706.81,6796.15 C 6705.51,6769.44 6673.81,6736.08 6673.81,6736.08 C 6673.81,6736.08 6917.02,6789.26 6917.02,6789.26 C 6917.02,6789.26 6917.02,6789.26 6917.02,6789.26 " />
<path stroke="none" fill="#c90000" transform="matrix(0.05 0 0 0.05 -46 -146)" d="M 13518.8,3651.2 A 20,20 0 1 0 13558.8,3651.2A 20,20 0 1 0 13518.8,3651.2Z " />
<path stroke="none" fill="#c90000" transform="matrix(0.05 0 0 0.05 -46 -146)" d="M 13382.8,3787.16 A 20,20 0 1 0 13422.8,3787.16A 20,20 0 1 0 13382.8,3787.16Z " />
<path stroke="none" fill="#ff0000" transform="matrix(0.05 0 0 0.05 -46 -146)" d="M 13327.7,3651.7 A 75.6181,75.6181 0 1 0 13478.9,3651.7A 75.6181,75.6181 0 1 0 13327.7,3651.7Z " />
<path stroke="none" fill="#ff0000" transform="matrix(0.05 0 0 0.05 -46 -146)" d="M 12903.5,3227.5 A 75.6181,75.6181 0 1 0 13054.7,3227.5A 75.6181,75.6181 0 1 0 12903.5,3227.5Z " />
<path stroke="none" fill="#0000ff" transform="matrix(0.05 0 0 0.05 -46 -146)" d="M 12903.5,4075.9 A 75.6181,75.6181 0 1 0 13054.7,4075.9A 75.6181,75.6181 0 1 0 12903.5,4075.9Z " />
<path stroke="none" fill="#ff0000" transform="matrix(0.05 0 0 0.05 -46 -146)" d="M 13470.7,7060.5 A 75.6181,75.6181 0 1 0 13621.9,7060.5A 75.6181,75.6181 0 1 0 13470.7,7060.5Z " />
<path stroke="none" fill="#ff0000" transform="matrix(0.05 0 0 0.05 -46 -146)" d="M 13046.3,6636.3 A 75.6181,75.6181 0 1 0 13197.5,6636.3A 75.6181,75.6181 0 1 0 13046.3,6636.3Z " />
<path stroke="none" fill="#0000ff" transform="matrix(0.05 0 0 0.05 -46 -146)" d="M 13046.3,7484.7 A 75.6181,75.6181 0 1 0 13197.5,7484.7A 75.6181,75.6181 0 1 0 13046.3,7484.7Z " />
<text x="0" y="0" stroke="none" fill="#c90000" transform="matrix(0.05 0 0 0.05 291 93)" font-style="normal" font-weight="normal" font-size="200px" font-family="Helvetica" >
TS,IRC</text>
<a target="_blank" xlink:href="https://doi.org/10.14469/hpc/13857"><text x="0" y="0" stroke="none" fill="#c90000" transform="matrix(0.05 0 0 0.05 291 103.05)" font-style="normal" font-weight="normal" font-size="200px" font-family="Helvetica" >
-1818.910718</text>
<text x="0" y="0" stroke="none" fill="#c90000" transform="matrix(0.05 0 0 0.05 291 113.1)" font-style="normal" font-weight="normal" font-size="200px" font-family="Helvetica" >
13853,</text>
<text x="0" y="0" stroke="none" fill="#c90000" transform="matrix(0.05 0 0 0.05 324.364 113.1)" font-style="normal" font-weight="normal" font-size="200px" font-family="Helvetica" >
13857</text></a>
<path stroke="#ff00ff" stroke-width="30" fill="none" transform="matrix(0.05 0 0 0.05 -46 -146)" d="M 2880.22,4800.07 C 3571.61,5997.6 5207.61,6503.68 6454.35,5905.69 " />
<path stroke="none" fill="#ff00ff" transform="matrix(0.05 0 0 0.05 -46 -146)" d="M 6640.37,5807.55 C 6640.37,5807.55 6456.81,5973.86 6456.81,5973.86 C 6456.81,5973.86 6467.05,5929.38 6454.35,5905.69 C 6441.65,5882 6398.74,5865.56 6398.74,5865.56 C 6398.74,5865.56 6640.37,5807.55 6640.37,5807.55 C 6640.37,5807.55 6640.37,5807.55 6640.37,5807.55 " />
<path stroke="#ff00ff" stroke-width="1" fill="none" transform="matrix(0.05 0 0 0.05 -46 -146)" d="M 6640.37,5807.55 C 6640.37,5807.55 6456.81,5973.86 6456.81,5973.86 C 6456.81,5973.86 6467.05,5929.38 6454.35,5905.69 C 6441.65,5882 6398.74,5865.56 6398.74,5865.56 C 6398.74,5865.56 6640.37,5807.55 6640.37,5807.55 C 6640.37,5807.55 6640.37,5807.55 6640.37,5807.55 " />
<path stroke="#ff00ff" stroke-width="30" fill="none" transform="matrix(0.05 0 0 0.05 -46 -146)" d="M 5568.58,5580.34 C 5417.08,5643.39 5345.29,5817.53 5408.34,5969.02 C 5440.64,6046.64 5507.24,6109.01 5586.81,6136.15 " />
<path stroke="none" fill="#ff00ff" transform="matrix(0.05 0 0 0.05 -46 -146)" d="M 5797.02,6129.26 C 5797.02,6129.26 5559.75,6198.2 5559.75,6198.2 C 5559.75,6198.2 5588.11,6162.87 5586.81,6136.15 C 5585.51,6109.44 5553.81,6076.08 5553.81,6076.08 C 5553.81,6076.08 5797.02,6129.26 5797.02,6129.26 C 5797.02,6129.26 5797.02,6129.26 5797.02,6129.26 " />
<path stroke="#ff00ff" stroke-width="1" fill="none" transform="matrix(0.05 0 0 0.05 -46 -146)" d="M 5797.02,6129.26 C 5797.02,6129.26 5559.75,6198.2 5559.75,6198.2 C 5559.75,6198.2 5588.11,6162.87 5586.81,6136.15 C 5585.51,6109.44 5553.81,6076.08 5553.81,6076.08 C 5553.81,6076.08 5797.02,6129.26 5797.02,6129.26 C 5797.02,6129.26 5797.02,6129.26 5797.02,6129.26 " />
<text x="0" y="0" stroke="none" fill="#ff00ff" transform="matrix(0.05 0 0 0.05 234 140)" font-style="normal" font-weight="normal" font-size="200px" font-family="Helvetica" >
Ethene</text>
<a target="_blank" xlink:href="https://doi.org/10.14469/hpc/13799"><text x="0" y="0" stroke="none" fill="#ff00ff" transform="matrix(0.05 0 0 0.05 234 151.93)" font-style="normal" font-weight="normal" font-size="200px" font-family="Helvetica Neue" >
13799</text></a>
<path stroke="#ff00ff" stroke-width="30" fill="none" transform="matrix(0.05 0 0 0.05 -46 -146)" d="M 8198.2,5905.39 C 9408.44,6411.58 10933.8,5856.34 11535.5,4690.63 " />
<path stroke="none" fill="#ff00ff" transform="matrix(0.05 0 0 0.05 -46 -146)" d="M 11624.4,4500 C 11624.4,4500 11578.3,4744.25 11578.3,4744.25 C 11578.3,4744.25 11559.8,4702.17 11535.5,4690.63 C 11511.2,4679.08 11467.4,4691.46 11467.4,4691.46 C 11467.4,4691.46 11624.4,4500 11624.4,4500 C 11624.4,4500 11624.4,4500 11624.4,4500 " />
<path stroke="#ff00ff" stroke-width="1" fill="none" transform="matrix(0.05 0 0 0.05 -46 -146)" d="M 11624.4,4500 C 11624.4,4500 11578.3,4744.25 11578.3,4744.25 C 11578.3,4744.25 11559.8,4702.17 11535.5,4690.63 C 11511.2,4679.08 11467.4,4691.46 11467.4,4691.46 C 11467.4,4691.46 11624.4,4500 11624.4,4500 C 11624.4,4500 11624.4,4500 11624.4,4500 " />
<text x="0" y="0" stroke="none" fill="#ff00ff" transform="matrix(0.05 0 0 0.05 286 134)" font-style="normal" font-weight="normal" font-size="200px" font-family="Helvetica" >
TS, </text>
<text x="0" y="0" stroke="none" fill="#ff00ff" transform="matrix(0.05 0 0 0.05 304.335 134)" font-style="normal" font-weight="normal" font-size="200px" font-family="Helvetica" >
IRC</text>
<a target="_blank" xlink:href="https://doi.org/10.14469/hpc/13856"><text x="0" y="0" stroke="none" fill="#ff00ff" transform="matrix(0.05 0 0 0.05 286 144.05)" font-style="normal" font-weight="normal" font-size="200px" font-family="Helvetica" >
-1818.911028</text>
<text x="0" y="0" stroke="none" fill="#ff00ff" transform="matrix(0.05 0 0 0.05 286 154.1)" font-style="normal" font-weight="normal" font-size="200px" font-family="Helvetica" >
13851,13856</text></a>
<path stroke="none" fill="#000000" transform="matrix(0.05 0 0 0.05 -46 -146)" d="M 12955,5417.02 L 12955,6180 L 12925,6180 L 12925,5417.02 Z " />
<path stroke="none" fill="#000000" transform="matrix(0.05 0 0 0.05 -46 -146)" d="M 12940,5155.11 C 12940,5155.11 13016.1,5455.58 13016.1,5455.58 C 13016.1,5455.58 12973.3,5418.02 12940,5418.02 C 12906.3,5418.02 12862.9,5455.58 12862.9,5455.58 C 12862.9,5455.58 12940,5155.11 12940,5155.11 C 12940,5155.11 12940,5155.11 12940,5155.11 " />
<path stroke="#000000" stroke-width="1" fill="none" transform="matrix(0.05 0 0 0.05 -46 -146)" d="M 12940,5155.11 C 12940,5155.11 13016.1,5455.58 13016.1,5455.58 C 13016.1,5455.58 12973.3,5418.02 12940,5418.02 C 12906.3,5418.02 12862.9,5455.58 12862.9,5455.58 C 12862.9,5455.58 12940,5155.11 12940,5155.11 C 12940,5155.11 12940,5155.11 12940,5155.11 " />
<text x="0" y="0" stroke="none" fill="#007100" transform="matrix(0.05 0 0 0.05 516 137)" font-style="normal" font-weight="normal" font-size="200px" font-family="Helvetica" >
TS </text>
<text x="0" y="0" stroke="none" fill="#007100" transform="matrix(0.05 0 0 0.05 531.557 137)" font-style="normal" font-weight="normal" font-size="200px" font-family="Helvetica" >
pseudorotation</text>
</svg>
